<svg xmlns="http://www.w3.org/2000/svg" width="137" height="25" viewBox="0 0 137 25">
    <g fill="none" fill-rule="nonzero">
        <path fill="#F47634" d="M9.71 6.758a5.23 5.23 0 0 1 3.848 1.686l2.626-.628.047-7.177L19.439 0v24.204l-3.208.64-.047-12.832v-.936l-4.434.837a2.04 2.04 0 0 0-3.992-.506l-3.3.628v-.064A5.26 5.26 0 0 1 9.71 6.758z"/>
        <path fill="#F47634" d="M9.728 17.434a5.23 5.23 0 0 1-3.847-1.686l-2.627.64v7.816L0 24.844V.638L3.254 0V13.139l4.411-.83a2.04 2.04 0 0 0 4.016.476l3.3-.581v.058a5.26 5.26 0 0 1-5.253 5.172z"/>
        <path fill="#24164F" d="M37.384 21.008l-.047-7.253h-6.904v7.253h-3.091V4.347h3.091v6.485h6.904l.047-6.485h3.039v16.66zM49.058 21.008a5.23 5.23 0 0 1-4.067-1.657c-1.006-1.11-1.5-2.644-1.5-4.614a6.555 6.555 0 0 1 1.517-4.573 5.23 5.23 0 0 1 4.068-1.674 5.381 5.381 0 0 1 3.737 1.39c1.022.917 1.534 2.337 1.534 4.259v.813c0 .308-.041.581-.07.843h-7.863a2.656 2.656 0 0 0 .855 1.982c.503.434 1.148.67 1.813.662.5.011.996-.088 1.453-.29a3.156 3.156 0 0 0 1.162-.948l1.766 1.82a5.765 5.765 0 0 1-1.836 1.44 5.678 5.678 0 0 1-2.569.547zm-2.62-7.508h5.009a2.58 2.58 0 0 0-.773-1.848 2.499 2.499 0 0 0-1.685-.582 2.627 2.627 0 0 0-1.744.582 2.563 2.563 0 0 0-.807 1.848zM65.394 7.322c-.963 0-1.743-.78-1.743-1.743-.006-.46.179-.902.51-1.22.327-.336.777-.52 1.245-.512a1.65 1.65 0 0 1 1.226.511c.328.321.51.762.505 1.22.008.465-.175.912-.505 1.239a1.656 1.656 0 0 1-1.238.505zm-1.47 13.407V8.775h2.97v11.954h-2.97zM75.314 21.008a5.126 5.126 0 0 1-4.016-1.65c-.988-1.101-1.482-2.633-1.482-4.597 0-1.965.494-3.497 1.482-4.597a5.654 5.654 0 0 1 8.031 0c.988 1.116 1.482 2.648 1.482 4.597 0 1.948-.494 3.48-1.482 4.596a5.126 5.126 0 0 1-4.015 1.65zm0-2.854a2.185 2.185 0 0 0 1.848-.9c.501-.732.75-1.607.709-2.493a4.12 4.12 0 0 0-.68-2.505 2.324 2.324 0 0 0-3.685 0 4.068 4.068 0 0 0-.691 2.505 4.01 4.01 0 0 0 .691 2.493 2.19 2.19 0 0 0 1.808.9zM87.552 21.008a6.613 6.613 0 0 1-2.749-.581 4.876 4.876 0 0 1-1.999-1.546l1.988-1.686c.337.315.71.59 1.11.82a3.44 3.44 0 0 0 3.004.21.872.872 0 0 0 .517-.855 1.011 1.011 0 0 0-.58-.878 11.564 11.564 0 0 0-1.64-.738 9.298 9.298 0 0 1-3.016-1.505 2.952 2.952 0 0 1-1.028-2.4 2.842 2.842 0 0 1 1.273-2.505 5.34 5.34 0 0 1 3.056-.865 5.51 5.51 0 0 1 2.621.58c.66.335 1.251.79 1.743 1.343l-2.01 1.616a4.271 4.271 0 0 0-1.07-.75 3.016 3.016 0 0 0-1.272-.256 2.284 2.284 0 0 0-1.122.233.738.738 0 0 0-.424.68c0 .325.233.58.703.842.527.259 1.075.47 1.639.634.673.222 1.326.5 1.953.83a4.143 4.143 0 0 1 1.44 1.227c.376.567.563 1.238.535 1.918a3.126 3.126 0 0 1-1.272 2.69 5.567 5.567 0 0 1-3.4.942zM99.86 21.008a5.044 5.044 0 0 1-3.945-1.65c-.988-1.101-1.482-2.633-1.482-4.597 0-1.965.494-3.497 1.482-4.597A5.027 5.027 0 0 1 99.86 8.49a5.544 5.544 0 0 1 3.08.831 4.736 4.736 0 0 1 1.86 2.633l-2.83.935a2.65 2.65 0 0 0-.785-1.11 1.918 1.918 0 0 0-1.255-.435 2.121 2.121 0 0 0-1.813.935 4.225 4.225 0 0 0-.668 2.482 4.16 4.16 0 0 0 .668 2.47 2.063 2.063 0 0 0 1.743.923c1.062 0 1.77-.58 2.127-1.743l2.836.843a5.23 5.23 0 0 1-1.778 2.795 5.096 5.096 0 0 1-3.185.959zM114.394 20.729v-.936c-.337.345-.73.63-1.162.843a4.202 4.202 0 0 1-1.906.372 4.87 4.87 0 0 1-3.132-.994 3.539 3.539 0 0 1-1.267-2.958 3.22 3.22 0 0 1 1.488-2.946 5.922 5.922 0 0 1 3.236-.942 8.194 8.194 0 0 1 1.546.134c.425.074.836.21 1.22.407v-.657a1.883 1.883 0 0 0-.58-1.54 2.481 2.481 0 0 0-1.64-.47 5.94 5.94 0 0 0-1.94.302 7.171 7.171 0 0 0-1.715.86l-.912-2.325a8.566 8.566 0 0 1 2.069-.97 8.717 8.717 0 0 1 2.772-.413 8.624 8.624 0 0 1 2.202.302 3.487 3.487 0 0 1 1.883 1.29c.573.897.84 1.955.761 3.016v7.625h-2.923zm-2.528-2.267a3.272 3.272 0 0 0 1.459-.308 4.12 4.12 0 0 0 1.07-.72v-1.407a6.154 6.154 0 0 0-2.25-.424 3.702 3.702 0 0 0-1.65.343 1.25 1.25 0 0 0-.163 2.139c.46.28.996.411 1.534.377zM120.595 20.729V8.775h2.97v1.261c.216-.425.533-.79.923-1.063.452-.328 1-.498 1.558-.483.418-.01.834.067 1.22.227.354.156.677.375.953.645l-.372 2.731a4.742 4.742 0 0 0-.842-.5 2.685 2.685 0 0 0-1.163-.226 2.383 2.383 0 0 0-1.534.58c-.476.39-.715 1.134-.715 2.227v6.555h-2.998zM134.025 21.008a2.656 2.656 0 0 1-2.209-.831 3.556 3.556 0 0 1-.668-2.325v-6.485h-1.743V8.775h1.743V5.288l2.97-.58v4.067h2.69v2.592h-2.69v6.067c-.016.26.062.518.22.726a.831.831 0 0 0 .669.256c.32 0 .638-.043.947-.128a5.19 5.19 0 0 0 .994-.384l-.349 2.598c-.366.19-.758.327-1.162.407-.466.08-.94.113-1.412.099zM60.234 4.649l-2.953.593v15.487h2.953z"/>
    </g>
</svg>
